<svg version="1.1" id="Layer_1" xmlns="http://www.w3.org/2000/svg" xmlns:xlink="http://www.w3.org/1999/xlink" x="0px" y="0px"
	 width="100%" viewBox="0 0 1500 189" enable-background="new 0 0 1500 189" xml:space="preserve">
<path fill="#4C6971" opacity="1.000000" stroke="none" 
	d="
M1152.000000,190.000000 
	C768.000122,190.000000 384.500214,190.000000 1.000257,190.000000 
	C1.000171,127.000130 1.000171,64.000267 1.000086,1.000299 
	C500.999725,1.000200 1000.999451,1.000200 1500.999268,1.000100 
	C1500.999512,63.999699 1500.999512,126.999397 1500.999756,189.999542 
	C1384.833374,190.000000 1268.666626,190.000000 1152.000000,190.000000 
M53.730885,162.919418 
	C55.329121,162.919418 56.927357,162.919418 58.534176,162.919418 
	C59.428921,152.871658 60.274380,143.377396 61.085369,133.918091 
	C61.085369,133.918091 61.054905,133.955521 61.634266,134.553391 
	C61.255341,142.848648 60.876415,151.143906 60.493069,159.535889 
	C64.228104,159.535889 67.590889,159.535889 71.597023,159.535889 
	C70.402222,151.699783 68.898460,144.436157 68.320259,137.099579 
	C67.955994,132.477570 66.551735,130.414627 61.773731,130.859879 
	C60.830112,130.947815 59.753536,129.608963 58.738277,128.928101 
	C62.698242,131.333771 68.545227,130.679886 71.104843,126.867172 
	C73.632080,123.102715 76.372772,119.481567 79.214249,116.568336 
	C78.364288,118.740158 77.514320,120.911980 76.664352,123.083801 
	C76.955528,123.203087 77.246704,123.322372 77.537880,123.441666 
	C79.304626,121.908218 81.071365,120.374771 83.880699,117.936409 
	C83.588959,122.141563 83.410606,124.712440 83.232246,127.283318 
	C83.598907,127.462318 83.965569,127.641327 84.332222,127.820328 
	C86.147545,124.565956 87.129982,120.171349 92.877724,121.447342 
	C93.283485,124.197372 93.720856,127.161674 94.222984,130.564865 
	C88.063332,129.798798 82.793404,129.143402 76.116493,128.313004 
	C77.239319,132.856750 77.767502,136.560410 79.091835,139.953293 
	C80.713356,144.107544 82.901108,148.056198 85.039024,151.987717 
	C86.340401,154.380905 87.556793,157.883652 89.605179,158.591782 
	C94.248528,160.197006 99.383034,160.381454 104.756226,161.211288 
	C104.756226,150.901230 104.756226,141.678986 104.756226,133.252884 
	C101.849373,131.930542 98.283180,131.450439 97.510323,129.721619 
	C95.842300,125.990402 95.608406,121.618080 94.798233,117.506317 
	C101.262398,120.603943 103.616089,125.535484 100.631767,130.417053 
	C102.639465,130.785889 104.524826,131.132233 107.241898,131.631393 
	C107.241898,139.979340 107.241898,148.315369 107.241898,156.743561 
	C111.384705,156.435303 114.701836,156.417267 117.907776,155.811096 
	C118.874863,155.628235 120.386642,153.624390 120.199211,152.774368 
	C118.564445,145.360565 116.674751,137.998795 114.648705,130.680267 
	C114.364349,129.653091 112.781357,128.092453 112.056564,128.221588 
	C106.310333,129.245438 104.859810,125.194206 102.993477,121.265190 
	C102.240204,119.679413 101.002808,117.861153 99.511917,117.168434 
	C93.133118,114.204643 91.652031,108.385338 90.180122,102.436974 
	C89.978439,101.621895 89.450554,100.887527 89.073685,100.115791 
	C87.970619,102.049232 88.100288,103.819061 87.946907,105.564011 
	C87.436653,111.368629 83.849472,115.415764 79.264435,115.319160 
	C81.171242,111.194374 84.562996,107.126411 84.723358,102.934807 
	C85.359169,86.316093 85.166641,69.655937 84.912552,53.016777 
	C84.771126,43.756023 76.313103,35.709320 67.403450,36.233421 
	C58.330158,36.767143 51.644260,45.014660 51.872826,53.653305 
	C52.100060,62.241692 52.220249,71.025955 50.695808,79.417000 
	C48.934750,89.110481 45.293293,98.458961 42.534401,107.976395 
	C41.568199,111.309555 40.295494,113.813835 36.248367,114.605484 
	C33.865246,115.071655 31.305655,116.968018 29.783785,118.955124 
	C27.531601,121.895775 25.539293,122.591759 22.265402,120.818512 
	C21.301701,120.296539 18.971952,120.575310 18.388958,121.340721 
	C13.139372,128.232849 8.139513,135.315186 3.264420,142.067352 
	C3.816886,142.939774 3.871779,143.144104 3.998618,143.210022 
	C17.070465,150.003601 30.121359,156.839539 43.297733,163.424347 
	C44.002522,163.776535 46.397736,162.301270 46.920048,161.173691 
	C48.527142,157.704254 49.606426,153.990341 50.890820,150.371414 
	C51.275101,150.494553 51.659386,150.617706 52.043667,150.740845 
	C51.051353,154.122482 50.059040,157.504135 49.027824,161.018356 
	C50.489109,161.748352 51.751087,162.378799 52.208641,163.075729 
	C47.214153,162.459793 46.475010,166.139084 46.111862,169.594238 
	C45.732555,173.203018 46.028332,176.881531 46.006149,180.529419 
	C45.980328,184.775681 47.779263,187.563232 52.234394,187.918991 
	C56.068695,188.225174 59.653614,185.146347 59.881046,181.008896 
	C60.161415,175.908432 59.948048,170.780807 59.948048,165.877823 
	C57.421139,164.829636 55.198959,163.907852 53.730885,162.919418 
M1166.171509,109.669075 
	C1165.134766,112.393539 1164.098145,115.117996 1162.792725,118.548958 
	C1161.712280,116.410645 1160.916016,115.141769 1160.400635,113.767540 
	C1154.929443,99.178757 1149.508057,84.571327 1144.062622,69.972870 
	C1137.864380,53.355865 1131.621216,36.755432 1125.482422,20.116489 
	C1124.355713,17.062969 1122.650024,15.747926 1119.223389,15.918322 
	C1113.239990,16.215857 1107.203613,16.352848 1101.240723,15.892877 
	C1096.030029,15.490916 1094.867920,17.422461 1094.893677,22.359697 
	C1095.087158,59.348434 1094.998657,96.338646 1094.998535,133.328400 
	C1094.998413,144.082108 1095.004639,143.836914 1105.970215,144.112015 
	C1110.863770,144.234772 1112.128418,142.633209 1112.099731,137.879074 
	C1111.909058,106.055702 1112.001221,74.230637 1112.001709,42.406116 
	C1112.001709,40.632847 1112.001709,38.859573 1112.001709,37.086304 
	C1113.182739,37.749252 1113.685913,38.539646 1114.009521,39.397774 
	C1125.650269,70.258270 1137.288330,101.119682 1148.892944,131.993744 
	C1153.482788,144.205154 1153.446045,144.085831 1166.528076,144.084442 
	C1170.148193,144.084045 1171.831909,142.801041 1173.031616,139.468170 
	C1183.304321,110.933395 1193.711182,82.446831 1204.121826,53.961906 
	C1206.331421,47.916054 1208.719971,41.935524 1211.026123,35.924904 
	C1211.350098,36.021458 1211.674194,36.118011 1211.998291,36.214569 
	C1211.998291,38.034248 1211.998291,39.853928 1211.998291,41.673607 
	C1211.998413,71.831917 1211.887695,101.990822 1212.047852,132.148285 
	C1212.121582,146.029999 1209.411011,143.698105 1224.291504,144.037048 
	C1227.602539,144.112457 1229.059082,143.178772 1229.050415,139.559219 
	C1228.955078,99.737167 1228.969727,59.914787 1229.027954,20.092598 
	C1229.032227,17.132893 1228.069458,15.903444 1224.998535,15.966984 
	C1218.003540,16.111723 1210.993286,15.809025 1204.013062,16.160976 
	C1202.408203,16.241896 1200.027710,17.902874 1199.475098,19.385061 
	C1188.359863,49.199673 1177.459839,79.094498 1166.171509,109.669075 
M980.465027,128.025833 
	C982.255188,129.966888 983.861755,132.126053 985.865784,133.812958 
	C997.225342,143.375061 1010.684265,143.002319 1024.186279,141.227386 
	C1029.078857,140.584229 1033.772827,138.431793 1038.974609,136.840424 
	C1038.974609,140.379608 1039.339722,143.415527 1038.909058,146.334061 
	C1037.345093,156.934830 1033.909546,166.939117 1022.629089,170.442612 
	C1011.788574,173.809479 1000.549805,173.001419 990.031250,168.383957 
	C984.994080,166.172745 980.432739,162.877502 974.996521,159.686111 
	C974.996521,163.206055 975.365112,166.070099 974.921326,168.802170 
	C973.939087,174.848846 976.924683,178.263138 981.711060,181.182480 
	C993.919434,188.628601 1007.257141,188.975403 1020.766235,187.428177 
	C1030.037109,186.366348 1038.142578,182.492218 1044.465210,175.212845 
	C1052.500122,165.961853 1055.438599,154.962967 1055.984375,143.114075 
	C1057.403198,112.303169 1052.606689,81.234146 1059.807373,50.649078 
	C1060.021240,49.741119 1059.269775,47.718834 1058.853760,47.686405 
	C1054.557861,47.351566 1050.201050,46.955017 1045.944702,47.391453 
	C1044.344971,47.555477 1042.963379,49.848301 1041.096191,51.515480 
	C1031.002808,46.696598 1019.953552,44.788250 1008.318787,45.958004 
	C996.868652,47.109196 987.245300,51.230358 980.394836,60.966873 
	C974.861450,68.831421 972.781677,77.598389 971.737244,87.003235 
	C970.128052,101.493256 971.884277,115.070969 980.465027,128.025833 
M643.974854,137.502380 
	C647.001465,134.246368 650.661499,131.380737 652.948914,127.669121 
	C665.094849,107.960655 664.535034,87.301140 655.705200,66.747787 
	C646.039917,44.250031 620.265625,40.872597 602.697021,50.704880 
	C598.907654,52.825565 595.495728,55.620499 591.713806,58.240696 
	C590.905029,54.623985 590.200195,51.472149 589.425720,48.008736 
	C585.061096,48.008736 581.080322,48.128540 577.110168,47.974300 
	C573.307007,47.826538 572.597961,49.405193 573.474854,52.870171 
	C576.295227,64.014648 577.225220,75.325645 577.101624,86.862167 
	C576.789612,116.000710 576.998230,145.144836 576.998230,174.286713 
	C576.998230,186.233337 576.997986,186.098953 588.862366,186.075348 
	C592.672974,186.067749 594.158020,185.030731 594.077881,180.994125 
	C593.849854,169.508469 593.985474,158.015228 594.021973,146.525101 
	C594.027405,144.801132 594.268433,143.077942 594.445862,140.762497 
	C611.645996,147.130463 627.967285,148.616882 643.974854,137.502380 
M778.001770,100.357498 
	C777.663330,93.737122 777.957397,87.007820 776.840515,80.521500 
	C775.098206,70.402992 770.764648,61.359394 763.109619,54.101055 
	C750.424438,42.073257 725.515198,43.696854 714.414551,53.827602 
	C712.652710,55.435524 710.589600,56.713272 708.415466,58.329803 
	C707.849426,55.552036 707.675049,53.172405 706.818359,51.070934 
	C706.314575,49.835140 704.785645,48.274872 703.615967,48.184963 
	C699.200867,47.845600 694.744019,48.048634 690.163391,48.048634 
	C690.163391,50.181591 690.039551,51.671169 690.183533,53.134399 
	C691.088440,62.332478 692.627258,71.509399 692.872498,80.722176 
	C693.315674,97.370491 692.997131,114.039070 692.998169,130.699188 
	C692.999207,147.525909 693.085144,164.353333 692.939270,181.178772 
	C692.907288,184.872940 694.140015,186.463257 697.827148,186.004547 
	C698.319092,185.943329 698.825623,185.998505 699.325439,186.001129 
	C710.001221,186.057205 710.001343,186.057236 710.001465,175.587570 
	C710.001648,164.121231 710.001526,152.654877 710.001526,140.417252 
	C725.649780,146.379135 740.889709,148.766800 755.687500,140.575729 
	C770.955994,132.124084 776.871704,117.989044 778.001770,100.357498 
M254.832458,144.928497 
	C257.292694,145.228119 259.746002,145.613358 262.214294,145.814011 
	C284.585602,147.632401 311.015045,137.971817 310.116302,106.141014 
	C309.770630,93.897652 304.424469,84.793320 294.182098,79.302345 
	C284.902344,74.327477 274.598572,71.299232 264.933319,66.992950 
	C259.377777,64.517708 253.248795,62.178017 249.037750,58.074146 
	C240.013763,49.279861 245.423019,34.476479 258.532257,31.114187 
	C272.967072,27.411919 286.710388,30.304789 299.960785,36.466621 
	C301.976501,37.403988 304.063965,38.187122 306.999908,39.408325 
	C306.999908,34.654617 306.752380,30.847261 307.071075,27.087904 
	C307.376434,23.486048 305.833862,21.623768 302.702148,20.295458 
	C285.755249,13.107498 268.308746,11.190915 250.792786,17.123083 
	C230.427032,24.020405 223.313141,43.124992 230.159378,62.179047 
	C233.748352,72.167686 242.779190,77.165024 252.274292,80.899742 
	C262.140167,84.780289 272.309814,88.015671 281.841431,92.586670 
	C293.717896,98.282166 296.793213,111.931931 288.990601,121.965652 
	C284.526733,127.705971 277.974609,129.551834 270.967773,129.992264 
	C256.621368,130.894028 243.439606,126.896988 230.803238,120.517937 
	C228.863129,119.538536 226.766846,118.868454 224.004852,117.758858 
	C224.004852,123.068695 224.145538,127.384613 223.956512,131.686050 
	C223.825470,134.667816 224.927719,136.264435 227.821716,137.085495 
	C236.560455,139.564743 245.250824,142.214523 254.832458,144.928497 
M401.893707,65.741127 
	C402.949371,70.025314 404.831329,74.293159 404.916443,78.596550 
	C405.268707,96.412155 404.996429,114.239021 405.112183,132.060730 
	C405.200958,145.731293 403.102325,143.763641 417.528259,144.051468 
	C421.085480,144.122437 422.065552,142.760117 422.049957,139.382339 
	C421.944519,116.563438 422.286926,93.738190 421.848328,70.927231 
	C421.676239,61.978378 417.936554,53.970520 409.708984,49.313885 
	C399.803040,43.707291 389.170380,44.569714 379.030731,48.234772 
	C373.157471,50.357697 367.990143,54.433575 362.002930,57.923275 
	C362.002930,55.843990 362.002930,54.054306 362.002899,52.264622 
	C362.002808,39.938812 362.092133,27.612169 361.976837,15.287436 
	C361.867340,3.585685 363.773987,5.229721 351.564240,5.104791 
	C345.024689,5.037879 345.002686,5.119410 345.001526,11.682843 
	C344.994385,51.991570 344.997559,92.300293 344.997375,132.609024 
	C344.997314,144.104141 345.002106,143.877731 356.260406,144.109177 
	C360.938843,144.205353 362.140747,142.639053 362.092377,138.149414 
	C361.880615,118.497047 362.118927,98.839859 361.914154,79.187340 
	C361.867981,74.757698 362.789459,71.464622 366.889954,69.296600 
	C368.774719,68.300072 370.306671,66.659012 372.124329,65.508904 
	C379.757324,60.679146 395.265808,58.047199 401.893707,65.741127 
M1308.937134,142.556351 
	C1314.514160,139.133118 1320.091187,135.709885 1325.939209,132.120285 
	C1326.586914,135.046753 1327.126099,138.121124 1328.001831,141.096481 
	C1328.312622,142.152359 1329.401489,143.725113 1330.203979,143.767807 
	C1334.953247,144.020401 1339.722656,143.892349 1344.719971,143.892349 
	C1344.719971,142.327499 1344.881592,141.480682 1344.695801,140.718613 
	C1341.612671,128.075638 1340.444824,115.276192 1340.942749,102.261574 
	C1341.260742,93.949394 1341.144409,85.612038 1340.965210,77.291519 
	C1340.728027,66.283409 1336.019409,57.510296 1327.056763,51.088093 
	C1319.615967,45.756321 1311.173584,45.704395 1302.429321,45.850182 
	C1291.851440,46.026543 1282.125732,48.588997 1272.989746,53.663136 
	C1271.500488,54.490299 1269.458496,55.965706 1269.329590,57.301476 
	C1268.879150,61.969299 1269.155151,66.707222 1269.155151,72.317574 
	C1271.442993,71.019966 1272.709351,70.322853 1273.955566,69.591560 
	C1283.120605,64.213448 1292.869507,61.434807 1303.622559,60.833313 
	C1319.283813,59.957287 1326.886841,74.459290 1323.080200,87.668457 
	C1321.175537,87.668457 1319.195068,87.860085 1317.262085,87.637955 
	C1302.578003,85.950584 1288.454956,87.708466 1275.411499,94.963379 
	C1264.752441,100.891960 1262.033691,110.768410 1263.017944,122.138435 
	C1263.827393,131.489731 1268.506226,138.242386 1276.907715,142.450256 
	C1287.286499,147.648346 1297.736084,146.577255 1308.937134,142.556351 
M539.544739,69.067871 
	C531.834534,52.953430 518.750916,46.005836 501.200012,45.719402 
	C479.887421,45.371578 464.144440,56.204964 458.460602,76.460907 
	C454.365448,91.055008 454.671509,105.775017 460.276611,119.909431 
	C464.734772,131.151489 472.605927,139.438995 484.529938,143.282349 
	C492.718170,145.921600 500.907776,146.600357 509.477844,145.101730 
	C523.717651,142.611664 534.015381,134.929672 539.717529,121.937317 
	C547.265747,104.738609 546.813049,87.168617 539.544739,69.067871 
M875.524475,48.742397 
	C870.173035,48.439255 864.821655,48.136108 859.126587,47.813499 
	C859.322937,49.867535 859.311401,50.851822 859.522339,51.785854 
	C862.014282,62.820541 863.353210,73.922943 863.090393,85.301765 
	C862.725098,101.117889 862.998352,116.948761 862.998352,132.773315 
	C862.998352,144.133911 863.000732,143.951584 874.354492,144.092590 
	C878.654907,144.145981 880.140930,142.964325 880.093811,138.480972 
	C879.878906,117.994621 879.963135,97.504501 880.072571,77.016434 
	C880.082214,75.226143 880.495300,72.535820 881.675415,71.805290 
	C887.798767,68.014809 893.890442,63.640606 900.637512,61.515087 
	C910.742371,58.331718 918.725769,62.165546 921.414368,70.004105 
	C922.415039,72.921562 922.905029,76.151115 922.929443,79.243881 
	C923.069092,96.899658 922.859192,114.558540 923.042908,132.213516 
	C923.186707,146.020889 920.400452,143.696609 935.350708,144.039505 
	C938.729187,144.117020 940.070679,143.056839 940.051208,139.501816 
	C939.931702,117.681259 940.526917,95.841850 939.800659,74.044823 
	C939.318604,59.578278 933.303894,49.038223 920.524292,46.712093 
	C913.306335,45.398277 905.156860,45.828156 898.116455,47.860851 
	C891.066895,49.896210 884.875427,54.904011 878.048767,58.755066 
	C877.368164,55.907814 876.606934,52.723457 875.524475,48.742397 
M1474.815186,125.432137 
	C1474.214478,123.215401 1473.110962,121.002792 1473.092651,118.781281 
	C1472.949097,101.287010 1473.070190,83.790672 1472.961670,66.295898 
	C1472.941528,63.052147 1474.065063,61.865883 1477.305786,61.961147 
	C1483.132324,62.132420 1488.969604,61.910213 1494.798950,62.024342 
	C1497.645264,62.080063 1499.069092,61.287083 1499.032349,58.107021 
	C1498.888428,45.678444 1499.958252,48.315472 1489.520020,48.003262 
	C1488.354614,47.968410 1487.187378,47.998543 1486.020996,47.998535 
	C1473.001221,47.998466 1473.001099,47.998466 1473.001099,34.925034 
	C1473.001099,28.174479 1473.001221,21.423923 1473.001221,13.651658 
	C1467.801880,16.202629 1463.734009,18.326984 1459.554565,20.202154 
	C1456.936768,21.376585 1455.853760,23.050896 1455.946167,25.982195 
	C1456.135376,31.974430 1455.883667,37.979801 1456.029175,43.974529 
	C1456.103271,47.022236 1454.913086,48.150768 1451.922729,48.022739 
	C1448.430664,47.873230 1444.903809,47.794411 1441.439697,48.149658 
	C1440.242310,48.272449 1438.409546,49.626953 1438.189331,50.692249 
	C1436.202881,60.298416 1437.650757,61.995464 1447.257446,62.000343 
	C1448.423828,62.000938 1449.608032,62.134911 1450.753418,61.980614 
	C1454.970581,61.412491 1456.117676,63.284039 1456.075562,67.356041 
	C1455.891479,85.182854 1455.964600,103.012779 1456.018799,120.841347 
	C1456.039185,127.567383 1458.388794,133.360947 1462.897705,138.473251 
	C1471.735474,148.493988 1487.766846,146.691681 1496.782837,143.376724 
	C1497.591431,143.079483 1498.692139,142.100876 1498.721069,141.400131 
	C1498.899902,137.054306 1498.811035,132.697449 1498.811035,127.858055 
	C1494.809814,128.968369 1491.845825,130.024399 1488.790894,130.586746 
	C1483.511230,131.558533 1478.439453,131.413818 1474.815186,125.432137 
M181.001404,33.500084 
	C180.999084,27.336105 181.358856,21.141993 180.849335,15.020227 
	C180.573853,11.710194 179.425842,8.112034 177.584579,5.375007 
	C174.591431,0.925649 169.716644,1.276243 167.218002,6.027004 
	C165.573730,9.153316 164.149277,12.858783 164.136795,16.310368 
	C163.945938,69.120476 163.945679,121.931694 164.137985,174.741791 
	C164.150543,178.191940 165.586136,181.898712 167.239716,185.019943 
	C169.741409,189.742050 174.773392,190.117371 177.585175,185.572388 
	C179.560471,182.379501 180.842499,178.190918 180.859787,174.439697 
	C181.074753,127.793915 181.000946,81.146812 181.001404,33.500084 
M1394.001343,117.500000 
	C1394.001465,106.011322 1394.389282,94.505386 1393.878906,83.039421 
	C1393.470337,73.859818 1396.176758,72.029480 1404.681885,67.286301 
	C1406.804688,66.102417 1409.368042,65.666626 1411.766602,65.028786 
	C1415.425659,64.055840 1420.921875,64.326538 1422.349121,62.027470 
	C1424.230713,58.996323 1422.930786,53.988998 1422.993286,49.831192 
	C1423.000732,49.332100 1423.182007,48.640099 1422.928101,48.366703 
	C1421.880127,47.238148 1420.645386,45.286736 1419.569458,45.343578 
	C1413.047852,45.688129 1406.709717,46.854580 1402.161377,52.323154 
	C1399.336670,55.719517 1396.436401,59.053013 1392.952637,63.138733 
	C1391.685791,57.710773 1390.594238,53.034004 1389.524780,48.451527 
	C1383.857788,48.451527 1378.643188,48.451527 1373.175659,48.451527 
	C1373.319946,49.885048 1373.310669,50.869976 1373.529419,51.801331 
	C1376.117188,62.819897 1377.365601,73.923836 1377.092651,85.298409 
	C1376.717285,100.940659 1376.856445,116.600342 1377.041260,132.249420 
	C1377.203735,146.015121 1374.394043,143.696259 1389.376831,144.040482 
	C1392.783447,144.118744 1394.150146,143.010406 1394.050781,139.477646 
	C1393.854248,132.490173 1393.998291,125.493095 1394.001343,117.500000 
M808.999268,114.500000 
	C808.999268,120.819183 808.999207,127.138367 808.999329,133.457550 
	C808.999512,144.048630 808.999512,144.048630 819.564453,143.999847 
	C825.976562,143.970230 825.994751,143.970230 825.996826,137.310822 
	C826.005005,111.368843 826.000610,85.426865 826.000732,59.484890 
	C826.000854,47.857216 825.997131,48.079033 814.440674,47.891582 
	C809.897705,47.817894 808.876587,49.402332 808.916748,53.634701 
	C809.105896,73.588264 808.999939,93.544632 808.999268,114.500000 
M77.190605,31.897018 
	C78.419067,30.792704 79.788902,29.809158 80.852562,28.564054 
	C86.800484,21.601530 86.109741,11.534857 79.375862,5.939472 
	C73.505463,1.061573 60.954731,1.772553 56.284107,7.247581 
	C51.440342,12.925572 50.806839,22.202507 54.999172,27.417950 
	C59.508087,33.027237 67.251053,37.299332 77.190605,31.897018 
M81.485008,181.966507 
	C84.192154,184.795059 87.353912,185.047577 90.418671,182.933365 
	C93.862190,180.557861 93.943428,177.043854 92.227242,173.630463 
	C85.821396,160.889572 79.278053,148.217819 72.786293,135.520111 
	C72.325043,135.508820 71.863792,135.497528 71.402542,135.486237 
	C71.219078,137.993805 70.780296,140.514725 70.910690,143.005859 
	C71.117470,146.956070 71.730843,150.883804 72.119987,154.826187 
	C72.309525,156.746368 72.438675,158.676712 72.488853,160.605209 
	C72.533928,162.337753 71.828705,164.368591 72.504517,165.756546 
	C75.103737,171.094681 78.124657,176.227509 81.485008,181.966507 
M809.532043,24.012697 
	C815.646423,28.338396 821.936951,27.990047 826.410034,23.078125 
	C829.886353,19.260715 830.140259,11.441464 826.917053,7.469238 
	C822.772522,2.361812 815.409729,1.277986 810.534363,5.057741 
	C804.772888,9.524470 804.117554,17.311449 809.532043,24.012697 
z"/>
<path fill="#0718C4" opacity="1.000000" stroke="none" 
	d="
M1166.343994,109.321144 
	C1177.459839,79.094498 1188.359863,49.199673 1199.475098,19.385061 
	C1200.027710,17.902874 1202.408203,16.241896 1204.013062,16.160976 
	C1210.993286,15.809025 1218.003540,16.111723 1224.998535,15.966984 
	C1228.069458,15.903444 1229.032227,17.132893 1229.027954,20.092598 
	C1228.969727,59.914787 1228.955078,99.737167 1229.050415,139.559219 
	C1229.059082,143.178772 1227.602539,144.112457 1224.291504,144.037048 
	C1209.411011,143.698105 1212.121582,146.029999 1212.047852,132.148285 
	C1211.887695,101.990822 1211.998413,71.831917 1211.998291,41.673607 
	C1211.998291,39.853928 1211.998291,38.034248 1211.998291,36.214569 
	C1211.674194,36.118011 1211.350098,36.021458 1211.026123,35.924904 
	C1208.719971,41.935524 1206.331421,47.916054 1204.121826,53.961906 
	C1193.711182,82.446831 1183.304321,110.933395 1173.031616,139.468170 
	C1171.831909,142.801041 1170.148193,144.084045 1166.528076,144.084442 
	C1153.446045,144.085831 1153.482788,144.205154 1148.892944,131.993744 
	C1137.288330,101.119682 1125.650269,70.258270 1114.009521,39.397774 
	C1113.685913,38.539646 1113.182739,37.749252 1112.001709,37.086304 
	C1112.001709,38.859573 1112.001709,40.632847 1112.001709,42.406116 
	C1112.001221,74.230637 1111.909058,106.055702 1112.099731,137.879074 
	C1112.128418,142.633209 1110.863770,144.234772 1105.970215,144.112015 
	C1095.004639,143.836914 1094.998413,144.082108 1094.998535,133.328400 
	C1094.998657,96.338646 1095.087158,59.348434 1094.893677,22.359697 
	C1094.867920,17.422461 1096.030029,15.490916 1101.240723,15.892877 
	C1107.203613,16.352848 1113.239990,16.215857 1119.223389,15.918322 
	C1122.650024,15.747926 1124.355713,17.062969 1125.482422,20.116489 
	C1131.621216,36.755432 1137.864380,53.355865 1144.062622,69.972870 
	C1149.508057,84.571327 1154.929443,99.178757 1160.400635,113.767540 
	C1160.916016,115.141769 1161.712280,116.410645 1162.792725,118.548958 
	C1164.098145,115.117996 1165.134766,112.393539 1166.343994,109.321144 
z"/>
<path fill="#0719C4" opacity="1.000000" stroke="none" 
	d="
M980.234619,127.745499 
	C971.884277,115.070969 970.128052,101.493256 971.737244,87.003235 
	C972.781677,77.598389 974.861450,68.831421 980.394836,60.966873 
	C987.245300,51.230358 996.868652,47.109196 1008.318787,45.958004 
	C1019.953552,44.788250 1031.002808,46.696598 1041.096191,51.515480 
	C1042.963379,49.848301 1044.344971,47.555477 1045.944702,47.391453 
	C1050.201050,46.955017 1054.557861,47.351566 1058.853760,47.686405 
	C1059.269775,47.718834 1060.021240,49.741119 1059.807373,50.649078 
	C1052.606689,81.234146 1057.403198,112.303169 1055.984375,143.114075 
	C1055.438599,154.962967 1052.500122,165.961853 1044.465210,175.212845 
	C1038.142578,182.492218 1030.037109,186.366348 1020.766235,187.428177 
	C1007.257141,188.975403 993.919434,188.628601 981.711060,181.182480 
	C976.924683,178.263138 973.939087,174.848846 974.921326,168.802170 
	C975.365112,166.070099 974.996521,163.206055 974.996521,159.686111 
	C980.432739,162.877502 984.994080,166.172745 990.031250,168.383957 
	C1000.549805,173.001419 1011.788574,173.809479 1022.629089,170.442612 
	C1033.909546,166.939117 1037.345093,156.934830 1038.909058,146.334061 
	C1039.339722,143.415527 1038.974609,140.379608 1038.974609,136.840424 
	C1033.772827,138.431793 1029.078857,140.584229 1024.186279,141.227386 
	C1010.684265,143.002319 997.225342,143.375061 985.865784,133.812958 
	C983.861755,132.126053 982.255188,129.966888 980.234619,127.745499 
M1013.778198,61.002335 
	C1003.258362,61.322098 995.551025,67.185059 991.997498,77.607346 
	C988.935852,86.587242 988.835266,95.862991 990.262146,105.034714 
	C991.565063,113.409195 994.514954,121.290581 1003.391479,124.740799 
	C1015.606262,129.488525 1026.791626,126.110298 1037.358643,119.682594 
	C1038.414673,119.040169 1038.986694,116.840950 1038.997559,115.358475 
	C1039.113159,99.538528 1039.027954,83.717186 1039.110229,67.896820 
	C1039.124634,65.126900 1038.215576,63.297169 1035.406128,62.993427 
	C1028.517700,62.248676 1021.613159,61.651726 1013.778198,61.002335 
z"/>
<path fill="#0719C4" opacity="1.000000" stroke="none" 
	d="
M643.702209,137.743530 
	C627.967285,148.616882 611.645996,147.130463 594.445862,140.762497 
	C594.268433,143.077942 594.027405,144.801132 594.021973,146.525101 
	C593.985474,158.015228 593.849854,169.508469 594.077881,180.994125 
	C594.158020,185.030731 592.672974,186.067749 588.862366,186.075348 
	C576.997986,186.098953 576.998230,186.233337 576.998230,174.286713 
	C576.998230,145.144836 576.789612,116.000710 577.101624,86.862167 
	C577.225220,75.325645 576.295227,64.014648 573.474854,52.870171 
	C572.597961,49.405193 573.307007,47.826538 577.110168,47.974300 
	C581.080322,48.128540 585.061096,48.008736 589.425720,48.008736 
	C590.200195,51.472149 590.905029,54.623985 591.713806,58.240696 
	C595.495728,55.620499 598.907654,52.825565 602.697021,50.704880 
	C620.265625,40.872597 646.039917,44.250031 655.705200,66.747787 
	C664.535034,87.301140 665.094849,107.960655 652.948914,127.669121 
	C650.661499,131.380737 647.001465,134.246368 643.702209,137.743530 
M594.002258,98.500015 
	C594.004700,106.661308 594.094604,114.823975 593.965881,122.983192 
	C593.915710,126.160408 594.798340,127.972504 598.285095,128.289459 
	C603.377808,128.752396 608.436890,129.578232 613.515198,130.209732 
	C623.429199,131.442596 631.790771,128.347412 637.025452,119.803040 
	C646.443665,104.430099 645.489441,88.255630 638.630615,72.282715 
	C635.014893,63.862194 626.884155,59.279316 617.957458,61.291336 
	C611.516602,62.743057 605.381287,66.060387 599.482239,69.237411 
	C595.136292,71.578041 593.427490,75.750900 593.894958,81.020447 
	C594.378723,86.473907 594.002441,92.003662 594.002258,98.500015 
z"/>
<path fill="#0719C4" opacity="1.000000" stroke="none" 
	d="
M778.001404,100.835129 
	C776.871704,117.989044 770.955994,132.124084 755.687500,140.575729 
	C740.889709,148.766800 725.649780,146.379135 710.001526,140.417252 
	C710.001526,152.654877 710.001648,164.121231 710.001465,175.587570 
	C710.001343,186.057236 710.001221,186.057205 699.325439,186.001129 
	C698.825623,185.998505 698.319092,185.943329 697.827148,186.004547 
	C694.140015,186.463257 692.907288,184.872940 692.939270,181.178772 
	C693.085144,164.353333 692.999207,147.525909 692.998169,130.699188 
	C692.997131,114.039070 693.315674,97.370491 692.872498,80.722176 
	C692.627258,71.509399 691.088440,62.332478 690.183533,53.134399 
	C690.039551,51.671169 690.163391,50.181591 690.163391,48.048634 
	C694.744019,48.048634 699.200867,47.845600 703.615967,48.184963 
	C704.785645,48.274872 706.314575,49.835140 706.818359,51.070934 
	C707.675049,53.172405 707.849426,55.552036 708.415466,58.329803 
	C710.589600,56.713272 712.652710,55.435524 714.414551,53.827602 
	C725.515198,43.696854 750.424438,42.073257 763.109619,54.101055 
	C770.764648,61.359394 775.098206,70.402992 776.840515,80.521500 
	C777.957397,87.007820 777.663330,93.737122 778.001404,100.835129 
M737.452759,61.006691 
	C726.976746,61.044090 718.814453,66.133713 711.586487,73.068520 
	C710.652893,73.964302 710.091492,75.692360 710.082581,77.039673 
	C709.980530,92.525383 709.921326,108.013618 710.174377,123.495888 
	C710.198975,124.999840 712.162964,127.453674 713.606445,127.778351 
	C719.069397,129.007080 724.666809,129.797821 730.254639,130.275055 
	C739.485779,131.063400 747.805664,128.972061 753.161804,120.640251 
	C762.668884,105.851189 761.913696,90.198143 756.228455,74.405380 
	C753.270813,66.189529 747.273987,61.492237 737.452759,61.006691 
z"/>
<path fill="#24A8DF" opacity="1.000000" stroke="none" 
	d="
M61.119835,133.883118 
	C60.274380,143.377396 59.428921,152.871658 58.534176,162.919418 
	C56.927357,162.919418 55.329121,162.919418 53.362946,162.959122 
	C52.995010,162.998825 53.013058,163.009247 53.013062,163.009247 
	C51.751087,162.378799 50.489109,161.748352 49.027824,161.018356 
	C50.059040,157.504135 51.051353,154.122482 52.043667,150.740845 
	C51.659386,150.617706 51.275101,150.494553 50.890820,150.371414 
	C49.606426,153.990341 48.527142,157.704254 46.920048,161.173691 
	C46.397736,162.301270 44.002522,163.776535 43.297733,163.424347 
	C30.121359,156.839539 17.070465,150.003601 3.998618,143.210022 
	C3.871779,143.144104 3.816886,142.939774 3.264420,142.067352 
	C8.139513,135.315186 13.139372,128.232849 18.388958,121.340721 
	C18.971952,120.575310 21.301701,120.296539 22.265402,120.818512 
	C25.539293,122.591759 27.531601,121.895775 29.783785,118.955124 
	C31.305655,116.968018 33.865246,115.071655 36.248367,114.605484 
	C40.295494,113.813835 41.568199,111.309555 42.534401,107.976395 
	C45.293293,98.458961 48.934750,89.110481 50.695808,79.417000 
	C52.220249,71.025955 52.100060,62.241692 51.872826,53.653305 
	C51.644260,45.014660 58.330158,36.767143 67.403450,36.233421 
	C76.313103,35.709320 84.771126,43.756023 84.912552,53.016777 
	C85.166641,69.655937 85.359169,86.316093 84.723358,102.934807 
	C84.562996,107.126411 81.171242,111.194374 79.120674,115.589722 
	C78.976913,115.860283 79.019821,115.797546 79.019821,115.797546 
	C76.372772,119.481567 73.632080,123.102715 71.104843,126.867172 
	C68.545227,130.679886 62.698242,131.333771 58.738277,128.928101 
	C59.753536,129.608963 60.830112,130.947815 61.773731,130.859879 
	C66.551735,130.414627 67.955994,132.477570 68.320259,137.099579 
	C68.898460,144.436157 70.402222,151.699783 71.597023,159.535889 
	C67.590889,159.535889 64.228104,159.535889 60.493069,159.535889 
	C60.876415,151.143906 61.255341,142.848648 61.126183,133.989227 
	C53.738853,133.598389 57.267006,125.934471 53.440441,123.506607 
	C52.234756,133.384872 52.805141,134.126923 61.119835,133.883118 
M50.293388,134.579391 
	C51.358360,135.014145 52.423332,135.448898 53.488304,135.883652 
	C53.591431,135.662857 53.694553,135.442047 53.797676,135.221252 
	C52.767357,134.594940 51.737034,133.968643 50.319321,132.655838 
	C50.533680,128.593521 50.748039,124.531189 50.962395,120.468864 
	C49.441284,124.668877 48.896000,128.853241 48.486073,133.050827 
	C48.457211,133.346329 49.427555,133.739426 50.293388,134.579391 
M37.361057,119.219879 
	C34.879814,120.496674 32.398567,121.773476 28.649544,123.702652 
	C34.858189,126.853851 39.894543,129.410049 46.485966,132.755539 
	C46.141502,128.268860 47.120773,123.679436 45.427208,122.244408 
	C40.511642,118.079254 41.469036,126.640572 36.838905,126.834885 
	C37.750599,124.532295 38.459602,122.741623 39.508579,120.566406 
	C39.005688,120.100067 38.502792,119.633720 37.361057,119.219879 
M54.771400,139.059952 
	C54.842396,139.294281 54.913391,139.528610 54.984386,139.762939 
	C55.230595,139.645004 55.476803,139.527069 55.723011,139.409134 
	C55.507778,139.185684 55.292542,138.962219 54.771400,139.059952 
M56.427322,136.333923 
	C56.427322,136.333923 56.271286,136.578491 56.271286,136.578491 
	C56.271286,136.578491 56.564617,136.555557 56.427322,136.333923 
z"/>
<path fill="#0719C4" opacity="1.000000" stroke="none" 
	d="
M254.396255,144.863159 
	C245.250824,142.214523 236.560455,139.564743 227.821716,137.085495 
	C224.927719,136.264435 223.825470,134.667816 223.956512,131.686050 
	C224.145538,127.384613 224.004852,123.068695 224.004852,117.758858 
	C226.766846,118.868454 228.863129,119.538536 230.803238,120.517937 
	C243.439606,126.896988 256.621368,130.894028 270.967773,129.992264 
	C277.974609,129.551834 284.526733,127.705971 288.990601,121.965652 
	C296.793213,111.931931 293.717896,98.282166 281.841431,92.586670 
	C272.309814,88.015671 262.140167,84.780289 252.274292,80.899742 
	C242.779190,77.165024 233.748352,72.167686 230.159378,62.179047 
	C223.313141,43.124992 230.427032,24.020405 250.792786,17.123083 
	C268.308746,11.190915 285.755249,13.107498 302.702148,20.295458 
	C305.833862,21.623768 307.376434,23.486048 307.071075,27.087904 
	C306.752380,30.847261 306.999908,34.654617 306.999908,39.408325 
	C304.063965,38.187122 301.976501,37.403988 299.960785,36.466621 
	C286.710388,30.304789 272.967072,27.411919 258.532257,31.114187 
	C245.423019,34.476479 240.013763,49.279861 249.037750,58.074146 
	C253.248795,62.178017 259.377777,64.517708 264.933319,66.992950 
	C274.598572,71.299232 284.902344,74.327477 294.182098,79.302345 
	C304.424469,84.793320 309.770630,93.897652 310.116302,106.141014 
	C311.015045,137.971817 284.585602,147.632401 262.214294,145.814011 
	C259.746002,145.613358 257.292694,145.228119 254.396255,144.863159 
z"/>
<path fill="#0719C4" opacity="1.000000" stroke="none" 
	d="
M401.680115,65.426376 
	C395.265808,58.047199 379.757324,60.679146 372.124329,65.508904 
	C370.306671,66.659012 368.774719,68.300072 366.889954,69.296600 
	C362.789459,71.464622 361.867981,74.757698 361.914154,79.187340 
	C362.118927,98.839859 361.880615,118.497047 362.092377,138.149414 
	C362.140747,142.639053 360.938843,144.205353 356.260406,144.109177 
	C345.002106,143.877731 344.997314,144.104141 344.997375,132.609024 
	C344.997559,92.300293 344.994385,51.991570 345.001526,11.682843 
	C345.002686,5.119410 345.024689,5.037879 351.564240,5.104791 
	C363.773987,5.229721 361.867340,3.585685 361.976837,15.287436 
	C362.092133,27.612169 362.002808,39.938812 362.002899,52.264622 
	C362.002930,54.054306 362.002930,55.843990 362.002930,57.923275 
	C367.990143,54.433575 373.157471,50.357697 379.030731,48.234772 
	C389.170380,44.569714 399.803040,43.707291 409.708984,49.313885 
	C417.936554,53.970520 421.676239,61.978378 421.848328,70.927231 
	C422.286926,93.738190 421.944519,116.563438 422.049957,139.382339 
	C422.065552,142.760117 421.085480,144.122437 417.528259,144.051468 
	C403.102325,143.763641 405.200958,145.731293 405.112183,132.060730 
	C404.996429,114.239021 405.268707,96.412155 404.916443,78.596550 
	C404.831329,74.293159 402.949371,70.025314 401.680115,65.426376 
z"/>
<path fill="#0719C4" opacity="1.000000" stroke="none" 
	d="
M1308.584961,142.729507 
	C1297.736084,146.577255 1287.286499,147.648346 1276.907715,142.450256 
	C1268.506226,138.242386 1263.827393,131.489731 1263.017944,122.138435 
	C1262.033691,110.768410 1264.752441,100.891960 1275.411499,94.963379 
	C1288.454956,87.708466 1302.578003,85.950584 1317.262085,87.637955 
	C1319.195068,87.860085 1321.175537,87.668457 1323.080200,87.668457 
	C1326.886841,74.459290 1319.283813,59.957287 1303.622559,60.833313 
	C1292.869507,61.434807 1283.120605,64.213448 1273.955566,69.591560 
	C1272.709351,70.322853 1271.442993,71.019966 1269.155151,72.317574 
	C1269.155151,66.707222 1268.879150,61.969299 1269.329590,57.301476 
	C1269.458496,55.965706 1271.500488,54.490299 1272.989746,53.663136 
	C1282.125732,48.588997 1291.851440,46.026543 1302.429321,45.850182 
	C1311.173584,45.704395 1319.615967,45.756321 1327.056763,51.088093 
	C1336.019409,57.510296 1340.728027,66.283409 1340.965210,77.291519 
	C1341.144409,85.612038 1341.260742,93.949394 1340.942749,102.261574 
	C1340.444824,115.276192 1341.612671,128.075638 1344.695801,140.718613 
	C1344.881592,141.480682 1344.719971,142.327499 1344.719971,143.892349 
	C1339.722656,143.892349 1334.953247,144.020401 1330.203979,143.767807 
	C1329.401489,143.725113 1328.312622,142.152359 1328.001831,141.096481 
	C1327.126099,138.121124 1326.586914,135.046753 1325.939209,132.120285 
	C1320.091187,135.709885 1314.514160,139.133118 1308.584961,142.729507 
M1291.204834,130.898453 
	C1299.186890,131.724792 1307.010620,131.105255 1313.528809,126.026649 
	C1317.406494,123.005501 1321.490234,119.494644 1323.648315,115.268082 
	C1325.267944,112.095993 1324.123047,107.422691 1323.868286,103.439514 
	C1323.795044,102.294838 1322.565430,100.284775 1321.820312,100.263351 
	C1310.723145,99.944366 1299.513184,99.147125 1289.007324,103.954346 
	C1282.737427,106.823372 1280.764526,112.170204 1281.009888,118.663086 
	C1281.246704,124.932434 1284.690430,128.695724 1291.204834,130.898453 
z"/>
<path fill="#0719C4" opacity="1.000000" stroke="none" 
	d="
M539.723267,69.406555 
	C546.813049,87.168617 547.265747,104.738609 539.717529,121.937317 
	C534.015381,134.929672 523.717651,142.611664 509.477844,145.101730 
	C500.907776,146.600357 492.718170,145.921600 484.529938,143.282349 
	C472.605927,139.438995 464.734772,131.151489 460.276611,119.909431 
	C454.671509,105.775017 454.365448,91.055008 458.460602,76.460907 
	C464.144440,56.204964 479.887421,45.371578 501.200012,45.719402 
	C518.750916,46.005836 531.834534,52.953430 539.723267,69.406555 
M490.824982,62.021832 
	C484.297791,64.741302 480.264130,69.660645 477.740326,76.180779 
	C473.004517,88.415520 472.874084,100.836067 477.089478,113.006233 
	C478.789734,117.915016 482.003204,122.940926 485.907440,126.319580 
	C495.884369,134.953476 516.257080,132.931091 522.796082,116.537071 
	C527.356506,105.103561 527.859192,93.548256 525.172668,81.523087 
	C521.937439,67.041702 509.409393,55.939030 490.824982,62.021832 
z"/>
<path fill="#0718C4" opacity="1.000000" stroke="none" 
	d="
M875.685059,49.140747 
	C876.606934,52.723457 877.368164,55.907814 878.048767,58.755066 
	C884.875427,54.904011 891.066895,49.896210 898.116455,47.860851 
	C905.156860,45.828156 913.306335,45.398277 920.524292,46.712093 
	C933.303894,49.038223 939.318604,59.578278 939.800659,74.044823 
	C940.526917,95.841850 939.931702,117.681259 940.051208,139.501816 
	C940.070679,143.056839 938.729187,144.117020 935.350708,144.039505 
	C920.400452,143.696609 923.186707,146.020889 923.042908,132.213516 
	C922.859192,114.558540 923.069092,96.899658 922.929443,79.243881 
	C922.905029,76.151115 922.415039,72.921562 921.414368,70.004105 
	C918.725769,62.165546 910.742371,58.331718 900.637512,61.515087 
	C893.890442,63.640606 887.798767,68.014809 881.675415,71.805290 
	C880.495300,72.535820 880.082214,75.226143 880.072571,77.016434 
	C879.963135,97.504501 879.878906,117.994621 880.093811,138.480972 
	C880.140930,142.964325 878.654907,144.145981 874.354492,144.092590 
	C863.000732,143.951584 862.998352,144.133911 862.998352,132.773315 
	C862.998352,116.948761 862.725098,101.117889 863.090393,85.301765 
	C863.353210,73.922943 862.014282,62.820541 859.522339,51.785854 
	C859.311401,50.851822 859.322937,49.867535 859.126587,47.813499 
	C864.821655,48.136108 870.173035,48.439255 875.685059,49.140747 
z"/>
<path fill="#0718C4" opacity="1.000000" stroke="none" 
	d="
M1474.957031,125.798553 
	C1478.439453,131.413818 1483.511230,131.558533 1488.790894,130.586746 
	C1491.845825,130.024399 1494.809814,128.968369 1498.811035,127.858055 
	C1498.811035,132.697449 1498.899902,137.054306 1498.721069,141.400131 
	C1498.692139,142.100876 1497.591431,143.079483 1496.782837,143.376724 
	C1487.766846,146.691681 1471.735474,148.493988 1462.897705,138.473251 
	C1458.388794,133.360947 1456.039185,127.567383 1456.018799,120.841347 
	C1455.964600,103.012779 1455.891479,85.182854 1456.075562,67.356041 
	C1456.117676,63.284039 1454.970581,61.412491 1450.753418,61.980614 
	C1449.608032,62.134911 1448.423828,62.000938 1447.257446,62.000343 
	C1437.650757,61.995464 1436.202881,60.298416 1438.189331,50.692249 
	C1438.409546,49.626953 1440.242310,48.272449 1441.439697,48.149658 
	C1444.903809,47.794411 1448.430664,47.873230 1451.922729,48.022739 
	C1454.913086,48.150768 1456.103271,47.022236 1456.029175,43.974529 
	C1455.883667,37.979801 1456.135376,31.974430 1455.946167,25.982195 
	C1455.853760,23.050896 1456.936768,21.376585 1459.554565,20.202154 
	C1463.734009,18.326984 1467.801880,16.202629 1473.001221,13.651658 
	C1473.001221,21.423923 1473.001099,28.174479 1473.001099,34.925034 
	C1473.001099,47.998466 1473.001221,47.998466 1486.020996,47.998535 
	C1487.187378,47.998543 1488.354614,47.968410 1489.520020,48.003262 
	C1499.958252,48.315472 1498.888428,45.678444 1499.032349,58.107021 
	C1499.069092,61.287083 1497.645264,62.080063 1494.798950,62.024342 
	C1488.969604,61.910213 1483.132324,62.132420 1477.305786,61.961147 
	C1474.065063,61.865883 1472.941528,63.052147 1472.961670,66.295898 
	C1473.070190,83.790672 1472.949097,101.287010 1473.092651,118.781281 
	C1473.110962,121.002792 1474.214478,123.215401 1474.957031,125.798553 
z"/>
<path fill="#0718C4" opacity="1.000000" stroke="none" 
	d="
M181.001404,34.000065 
	C181.000946,81.146812 181.074753,127.793915 180.859787,174.439697 
	C180.842499,178.190918 179.560471,182.379501 177.585175,185.572388 
	C174.773392,190.117371 169.741409,189.742050 167.239716,185.019943 
	C165.586136,181.898712 164.150543,178.191940 164.137985,174.741791 
	C163.945679,121.931694 163.945938,69.120476 164.136795,16.310368 
	C164.149277,12.858783 165.573730,9.153316 167.218002,6.027004 
	C169.716644,1.276243 174.591431,0.925649 177.584579,5.375007 
	C179.425842,8.112034 180.573853,11.710194 180.849335,15.020227 
	C181.358856,21.141993 180.999084,27.336105 181.001404,34.000065 
z"/>
<path fill="#0718C4" opacity="1.000000" stroke="none" 
	d="
M1394.001343,118.000000 
	C1393.998291,125.493095 1393.854248,132.490173 1394.050781,139.477646 
	C1394.150146,143.010406 1392.783447,144.118744 1389.376831,144.040482 
	C1374.394043,143.696259 1377.203735,146.015121 1377.041260,132.249420 
	C1376.856445,116.600342 1376.717285,100.940659 1377.092651,85.298409 
	C1377.365601,73.923836 1376.117188,62.819897 1373.529419,51.801331 
	C1373.310669,50.869976 1373.319946,49.885048 1373.175659,48.451527 
	C1378.643188,48.451527 1383.857788,48.451527 1389.524780,48.451527 
	C1390.594238,53.034004 1391.685791,57.710773 1392.952637,63.138733 
	C1396.436401,59.053013 1399.336670,55.719517 1402.161377,52.323154 
	C1406.709717,46.854580 1413.047852,45.688129 1419.569458,45.343578 
	C1420.645386,45.286736 1421.880127,47.238148 1422.928101,48.366703 
	C1423.182007,48.640099 1423.000732,49.332100 1422.993286,49.831192 
	C1422.930786,53.988998 1424.230713,58.996323 1422.349121,62.027470 
	C1420.921875,64.326538 1415.425659,64.055840 1411.766602,65.028786 
	C1409.368042,65.666626 1406.804688,66.102417 1404.681885,67.286301 
	C1396.176758,72.029480 1393.470337,73.859818 1393.878906,83.039421 
	C1394.389282,94.505386 1394.001465,106.011322 1394.001343,118.000000 
z"/>
<path fill="#0718C4" opacity="1.000000" stroke="none" 
	d="
M808.999268,114.000000 
	C808.999939,93.544632 809.105896,73.588264 808.916748,53.634701 
	C808.876587,49.402332 809.897705,47.817894 814.440674,47.891582 
	C825.997131,48.079033 826.000854,47.857216 826.000732,59.484890 
	C826.000610,85.426865 826.005005,111.368843 825.996826,137.310822 
	C825.994751,143.970230 825.976562,143.970230 819.564453,143.999847 
	C808.999512,144.048630 808.999512,144.048630 808.999329,133.457550 
	C808.999207,127.138367 808.999268,120.819183 808.999268,114.000000 
z"/>
<path fill="#24A8DF" opacity="1.000000" stroke="none" 
	d="
M78.945847,115.882172 
	C83.849472,115.415764 87.436653,111.368629 87.946907,105.564011 
	C88.100288,103.819061 87.970619,102.049232 89.073685,100.115791 
	C89.450554,100.887527 89.978439,101.621895 90.180122,102.436974 
	C91.652031,108.385338 93.133118,114.204643 99.511917,117.168434 
	C101.002808,117.861153 102.240204,119.679413 102.993477,121.265190 
	C104.859810,125.194206 106.310333,129.245438 112.056564,128.221588 
	C112.781357,128.092453 114.364349,129.653091 114.648705,130.680267 
	C116.674751,137.998795 118.564445,145.360565 120.199211,152.774368 
	C120.386642,153.624390 118.874863,155.628235 117.907776,155.811096 
	C114.701836,156.417267 111.384705,156.435303 107.241898,156.743561 
	C107.241898,148.315369 107.241898,139.979340 107.241898,131.631393 
	C104.524826,131.132233 102.639465,130.785889 100.631767,130.417053 
	C103.616089,125.535484 101.262398,120.603943 94.792992,117.507187 
	C95.608406,121.618080 95.842300,125.990402 97.510323,129.721619 
	C98.283180,131.450439 101.849373,131.930542 104.756226,133.252884 
	C104.756226,141.678986 104.756226,150.901230 104.756226,161.211288 
	C99.383034,160.381454 94.248528,160.197006 89.605179,158.591782 
	C87.556793,157.883652 86.340401,154.380905 85.039024,151.987717 
	C82.901108,148.056198 80.713356,144.107544 79.091835,139.953293 
	C77.767502,136.560410 77.239319,132.856750 76.116493,128.313004 
	C82.793404,129.143402 88.063332,129.798798 94.222984,130.564865 
	C93.720856,127.161674 93.283485,124.197372 92.877724,121.447342 
	C87.129982,120.171349 86.147545,124.565956 84.332222,127.820328 
	C83.965569,127.641327 83.598907,127.462318 83.232246,127.283318 
	C83.410606,124.712440 83.588959,122.141563 83.880699,117.936409 
	C81.071365,120.374771 79.304626,121.908218 77.537880,123.441666 
	C77.246704,123.322372 76.955528,123.203087 76.664352,123.083801 
	C77.514320,120.911980 78.364288,118.740158 79.117035,116.182938 
	C79.019821,115.797546 78.976913,115.860283 78.945847,115.882172 
z"/>
<path fill="#24A8DF" opacity="1.000000" stroke="none" 
	d="
M76.836792,32.031746 
	C67.251053,37.299332 59.508087,33.027237 54.999172,27.417950 
	C50.806839,22.202507 51.440342,12.925572 56.284107,7.247581 
	C60.954731,1.772553 73.505463,1.061573 79.375862,5.939472 
	C86.109741,11.534857 86.800484,21.601530 80.852562,28.564054 
	C79.788902,29.809158 78.419067,30.792704 76.836792,32.031746 
z"/>
<path fill="#24A8DF" opacity="1.000000" stroke="none" 
	d="
M81.236664,181.701691 
	C78.124657,176.227509 75.103737,171.094681 72.504517,165.756546 
	C71.828705,164.368591 72.533928,162.337753 72.488853,160.605209 
	C72.438675,158.676712 72.309525,156.746368 72.119987,154.826187 
	C71.730843,150.883804 71.117470,146.956070 70.910690,143.005859 
	C70.780296,140.514725 71.219078,137.993805 71.402542,135.486237 
	C71.863792,135.497528 72.325043,135.508820 72.786293,135.520111 
	C79.278053,148.217819 85.821396,160.889572 92.227242,173.630463 
	C93.943428,177.043854 93.862190,180.557861 90.418671,182.933365 
	C87.353912,185.047577 84.192154,184.795059 81.236664,181.701691 
z"/>
<path fill="#0718C4" opacity="1.000000" stroke="none" 
	d="
M809.258423,23.741940 
	C804.117554,17.311449 804.772888,9.524470 810.534363,5.057741 
	C815.409729,1.277986 822.772522,2.361812 826.917053,7.469238 
	C830.140259,11.441464 829.886353,19.260715 826.410034,23.078125 
	C821.936951,27.990047 815.646423,28.338396 809.258423,23.741940 
z"/>
<path fill="#24A7DF" opacity="1.000000" stroke="none" 
	d="
M52.985893,162.992432 
	C55.198959,163.907852 57.421139,164.829636 59.948048,165.877823 
	C59.948048,170.780807 60.161415,175.908432 59.881046,181.008896 
	C59.653614,185.146347 56.068695,188.225174 52.234394,187.918991 
	C47.779263,187.563232 45.980328,184.775681 46.006149,180.529419 
	C46.028332,176.881531 45.732555,173.203018 46.111862,169.594238 
	C46.475010,166.139084 47.214153,162.459793 52.610847,163.042480 
	C53.013058,163.009247 52.995010,162.998825 52.985893,162.992432 
z"/>
<path fill="#4C6971" opacity="1.000000" stroke="none" 
	d="
M1014.246643,60.998825 
	C1021.613159,61.651726 1028.517700,62.248676 1035.406128,62.993427 
	C1038.215576,63.297169 1039.124634,65.126900 1039.110229,67.896820 
	C1039.027954,83.717186 1039.113159,99.538528 1038.997559,115.358475 
	C1038.986694,116.840950 1038.414673,119.040169 1037.358643,119.682594 
	C1026.791626,126.110298 1015.606262,129.488525 1003.391479,124.740799 
	C994.514954,121.290581 991.565063,113.409195 990.262146,105.034714 
	C988.835266,95.862991 988.935852,86.587242 991.997498,77.607346 
	C995.551025,67.185059 1003.258362,61.322098 1014.246643,60.998825 
z"/>
<path fill="#4C6971" opacity="1.000000" stroke="none" 
	d="
M594.002319,98.000031 
	C594.002441,92.003662 594.378723,86.473907 593.894958,81.020447 
	C593.427490,75.750900 595.136292,71.578041 599.482239,69.237411 
	C605.381287,66.060387 611.516602,62.743057 617.957458,61.291336 
	C626.884155,59.279316 635.014893,63.862194 638.630615,72.282715 
	C645.489441,88.255630 646.443665,104.430099 637.025452,119.803040 
	C631.790771,128.347412 623.429199,131.442596 613.515198,130.209732 
	C608.436890,129.578232 603.377808,128.752396 598.285095,128.289459 
	C594.798340,127.972504 593.915710,126.160408 593.965881,122.983192 
	C594.094604,114.823975 594.004700,106.661308 594.002319,98.000031 
z"/>
<path fill="#4C6971" opacity="1.000000" stroke="none" 
	d="
M737.889832,61.007782 
	C747.273987,61.492237 753.270813,66.189529 756.228455,74.405380 
	C761.913696,90.198143 762.668884,105.851189 753.161804,120.640251 
	C747.805664,128.972061 739.485779,131.063400 730.254639,130.275055 
	C724.666809,129.797821 719.069397,129.007080 713.606445,127.778351 
	C712.162964,127.453674 710.198975,124.999840 710.174377,123.495888 
	C709.921326,108.013618 709.980530,92.525383 710.082581,77.039673 
	C710.091492,75.692360 710.652893,73.964302 711.586487,73.068520 
	C718.814453,66.133713 726.976746,61.044090 737.889832,61.007782 
z"/>
<path fill="#4C6971" opacity="1.000000" stroke="none" 
	d="
M39.168610,120.950943 
	C38.459602,122.741623 37.750599,124.532295 36.838905,126.834885 
	C41.469036,126.640572 40.511642,118.079254 45.427208,122.244408 
	C47.120773,123.679436 46.141502,128.268860 46.485966,132.755539 
	C39.894543,129.410049 34.858189,126.853851 28.649544,123.702652 
	C32.398567,121.773476 34.879814,120.496674 37.801487,119.432327 
	C38.550816,120.080170 38.859711,120.515556 39.168610,120.950943 
z"/>
<path fill="#4C6971" opacity="1.000000" stroke="none" 
	d="
M61.102604,133.900604 
	C52.805141,134.126923 52.234756,133.384872 53.440441,123.506607 
	C57.267006,125.934471 53.738853,133.598389 60.836502,133.690292 
	C61.054905,133.955521 61.085369,133.918091 61.102604,133.900604 
z"/>
<path fill="#4C6971" opacity="1.000000" stroke="none" 
	d="
M49.933270,134.087143 
	C49.427555,133.739426 48.457211,133.346329 48.486073,133.050827 
	C48.896000,128.853241 49.441284,124.668877 50.962395,120.468864 
	C50.748039,124.531189 50.533680,128.593521 50.319550,133.185181 
	C50.190941,133.838730 50.062103,133.962936 49.933270,134.087143 
z"/>
<path fill="#4C6971" opacity="1.000000" stroke="none" 
	d="
M50.513245,133.528427 
	C51.737034,133.968643 52.767357,134.594940 53.797676,135.221252 
	C53.694553,135.442047 53.591431,135.662857 53.488304,135.883652 
	C52.423332,135.448898 51.358360,135.014145 50.113327,134.333267 
	C50.062103,133.962936 50.190941,133.838730 50.513245,133.528427 
z"/>
<path fill="#4C6971" opacity="1.000000" stroke="none" 
	d="
M54.924355,138.899353 
	C55.292542,138.962219 55.507778,139.185684 55.723007,139.409134 
	C55.476803,139.527069 55.230595,139.645004 54.984390,139.762939 
	C54.913391,139.528610 54.842396,139.294281 54.924355,138.899353 
z"/>
<path fill="#0D3CCA" opacity="1.000000" stroke="none" 
	d="
M39.338593,120.758675 
	C38.859711,120.515556 38.550816,120.080170 38.120911,119.406082 
	C38.502792,119.633720 39.005688,120.100067 39.338593,120.758675 
z"/>
<path fill="#4C6971" opacity="1.000000" stroke="none" 
	d="
M56.495972,136.444733 
	C56.564617,136.555557 56.271286,136.578491 56.271286,136.578491 
	C56.271286,136.578491 56.427322,136.333923 56.495972,136.444733 
z"/>
<path fill="#4C6971" opacity="1.000000" stroke="none" 
	d="
M1290.790771,130.812012 
	C1284.690430,128.695724 1281.246704,124.932434 1281.009888,118.663086 
	C1280.764526,112.170204 1282.737427,106.823372 1289.007324,103.954346 
	C1299.513184,99.147125 1310.723145,99.944366 1321.820312,100.263351 
	C1322.565430,100.284775 1323.795044,102.294838 1323.868286,103.439514 
	C1324.123047,107.422691 1325.267944,112.095993 1323.648315,115.268082 
	C1321.490234,119.494644 1317.406494,123.005501 1313.528809,126.026649 
	C1307.010620,131.105255 1299.186890,131.724792 1290.790771,130.812012 
z"/>
<path fill="#4C6971" opacity="1.000000" stroke="none" 
	d="
M491.195496,61.880814 
	C509.409393,55.939030 521.937439,67.041702 525.172668,81.523087 
	C527.859192,93.548256 527.356506,105.103561 522.796082,116.537071 
	C516.257080,132.931091 495.884369,134.953476 485.907440,126.319580 
	C482.003204,122.940926 478.789734,117.915016 477.089478,113.006233 
	C472.874084,100.836067 473.004517,88.415520 477.740326,76.180779 
	C480.264130,69.660645 484.297791,64.741302 491.195496,61.880814 
z"/>
</svg>