<svg xmlns="http://www.w3.org/2000/svg" version="1.1" xmlns:xlink="http://www.w3.org/1999/xlink" xmlns:svgjs="http://svgjs.dev/svgjs" width="1500" height="1500" viewBox="0 0 1500 1500"><rect width="1500" height="1500" fill="#ffffff"></rect><g transform="matrix(0.6666666666666666,0,0,0.6666666666666666,249.39393939393938,685.782098195418)"><svg viewBox="0 0 396 50" data-background-color="#ffffff" preserveAspectRatio="xMidYMid meet" height="189" width="1500" xmlns="http://www.w3.org/2000/svg" xmlns:xlink="http://www.w3.org/1999/xlink"><g id="tight-bounds" transform="matrix(1,0,0,1,0.2400000000000091,0.48329436689760996)"><svg viewBox="0 0 395.52 49.03341126620475" height="49.03341126620475" width="395.52"><g><svg viewBox="0 0 464.1432746709453 57.54077688456588" height="49.03341126620475" width="395.52"><g><rect width="5.163270290081489" height="57.54077688456588" x="49.9435900089227" y="0" fill="#000000" opacity="1" stroke-width="0" stroke="transparent" fill-opacity="1" class="rect-yte-0" data-fill-palette-color="primary" rx="1%" id="yte-0" data-palette-color="#0718c4"></rect></g><g transform="matrix(1,0,0,1,68.62327467094526,0.14313626090687848)"><svg viewBox="0 0 395.52000000000004 57.25450436275212" height="57.25450436275212" width="395.52000000000004"><g id="textblocktransform"><svg viewBox="0 0 395.52000000000004 57.25450436275212" height="57.25450436275212" width="395.52000000000004" id="textblock"><g><svg viewBox="0 0 395.52000000000004 57.25450436275212" height="57.25450436275212" width="395.52000000000004"><g transform="matrix(1,0,0,1,0,0)"><svg width="395.52000000000004" viewBox="4.3 -38.4 349.52 50.599999999999994" height="57.25450436275212" data-palette-color="#0718c4"><path d="M16.3 0.6Q13.4 0.6 10.25-0.15 7.1-0.9 4.3-2.2L4.3-2.2 4.3-6.95Q7.6-5.15 10.43-4.3 13.25-3.45 16-3.45L16-3.45Q19.45-3.45 21.35-5 23.25-6.55 23.25-9.25L23.25-9.25Q23.25-11.1 22.2-12.35 21.15-13.6 19.55-14.35 17.95-15.1 15.25-16L15.25-16Q12-17.1 10.03-18.1 8.05-19.1 6.65-20.95 5.25-22.8 5.25-25.75L5.25-25.75Q5.25-30.15 8.45-32.77 11.65-35.4 17.05-35.4L17.05-35.4Q22.3-35.4 26.7-33.15L26.7-33.15 26.7-28.55Q21.75-31.35 17.05-31.35L17.05-31.35Q13.6-31.35 11.65-29.98 9.7-28.6 9.7-26.2L9.7-26.2Q9.7-24.55 10.7-23.45 11.7-22.35 13.15-21.68 14.6-21 17.25-20.05L17.25-20.05Q20.55-18.95 22.65-17.9 24.75-16.85 26.23-14.85 27.7-12.85 27.7-9.7L27.7-9.7Q27.7-6.6 26.3-4.28 24.9-1.95 22.3-0.68 19.7 0.6 16.3 0.6L16.3 0.6ZM50.95-26.7Q54.65-26.7 56.55-24.43 58.45-22.15 58.45-18.1L58.45-18.1 58.45 0 54.05 0 54.05-17.5Q54.05-20 53-21.38 51.95-22.75 49.8-22.75L49.8-22.75Q47.35-22.75 45.67-21.95 44-21.15 41.95-19.35L41.95-19.35 41.95 0 37.55 0 37.55-37.7 41.95-37.7 41.95-22.85Q44.15-24.85 46.12-25.78 48.1-26.7 50.95-26.7L50.95-26.7ZM80 0.6Q74.3 0.6 71.09-3.13 67.9-6.85 67.9-13.05L67.9-13.05Q67.9-19.25 71.09-22.98 74.3-26.7 80-26.7L80-26.7Q85.7-26.7 88.9-22.98 92.09-19.25 92.09-13.05L92.09-13.05Q92.09-6.85 88.9-3.13 85.7 0.6 80 0.6L80 0.6ZM80-3.2Q83.65-3.2 85.5-5.9 87.34-8.6 87.34-13.05L87.34-13.05Q87.34-17.5 85.5-20.2 83.65-22.9 80-22.9L80-22.9Q76.34-22.9 74.52-20.2 72.7-17.5 72.7-13.05L72.7-13.05Q72.7-8.6 74.52-5.9 76.34-3.2 80-3.2L80-3.2ZM113.49-26.7Q116.89-26.7 119.29-24.9 121.69-23.1 122.92-20 124.14-16.9 124.14-13L124.14-13Q124.14-9.1 122.72-6.03 121.29-2.95 118.62-1.2 115.94 0.55 112.29 0.55L112.29 0.55Q110.44 0.55 108.84 0.15 107.24-0.25 105.44-1L105.44-1 105.44 11.6 101.04 11.6 101.04-20.3 99.94-26.1 104.34-26.1 104.99-22.75Q108.39-26.7 113.49-26.7L113.49-26.7ZM111.84-3.35Q115.44-3.35 117.42-6.05 119.39-8.75 119.39-13L119.39-13Q119.39-17.25 117.87-19.95 116.34-22.65 113.09-22.65L113.09-22.65Q110.79-22.65 108.97-21.7 107.14-20.75 105.44-18.9L105.44-18.9 105.44-4.35Q108.69-3.35 111.84-3.35L111.84-3.35ZM145.49-26.7Q148.89-26.7 151.29-24.9 153.69-23.1 154.92-20 156.14-16.9 156.14-13L156.14-13Q156.14-9.1 154.72-6.03 153.29-2.95 150.62-1.2 147.94 0.55 144.29 0.55L144.29 0.55Q142.44 0.55 140.84 0.15 139.24-0.25 137.44-1L137.44-1 137.44 11.6 133.04 11.6 133.04-20.3 131.94-26.1 136.34-26.1 136.99-22.75Q140.39-26.7 145.49-26.7L145.49-26.7ZM143.84-3.35Q147.44-3.35 149.42-6.05 151.39-8.75 151.39-13L151.39-13Q151.39-17.25 149.87-19.95 148.34-22.65 145.09-22.65L145.09-22.65Q142.79-22.65 140.97-21.7 139.14-20.75 137.44-18.9L137.44-18.9 137.44-4.35Q140.69-3.35 143.84-3.35L143.84-3.35ZM166.99-32Q165.59-32 164.71-32.9 163.84-33.8 163.84-35.2L163.84-35.2Q163.84-36.6 164.71-37.5 165.59-38.4 166.99-38.4L166.99-38.4Q168.39-38.4 169.26-37.5 170.14-36.6 170.14-35.2L170.14-35.2Q170.14-33.8 169.26-32.9 168.39-32 166.99-32L166.99-32ZM164.79-26.1L169.19-26.1 169.19 0 164.79 0 164.79-26.1ZM192.94-26.7Q196.64-26.7 198.54-24.43 200.44-22.15 200.44-18.1L200.44-18.1 200.44 0 196.04 0 196.04-17.5Q196.04-20 194.99-21.38 193.94-22.75 191.79-22.75L191.79-22.75Q189.34-22.75 187.66-21.95 185.99-21.15 183.94-19.35L183.94-19.35 183.94 0 179.54 0 179.54-20.3 178.44-26.1 182.84-26.1 183.54-22.45Q185.89-24.7 187.91-25.7 189.94-26.7 192.94-26.7L192.94-26.7ZM229.08-26.15L233.48-26.15 232.38-20.35 232.38-1.7Q232.38 4.9 229.33 8.55 226.28 12.2 220.28 12.2L220.28 12.2Q216.93 12.2 214.78 11.55 212.63 10.9 210.33 8.95L210.33 8.95 210.33 4.5Q212.78 6.55 214.93 7.33 217.08 8.1 220.28 8.1L220.28 8.1Q224.13 8.1 226.06 5.68 227.98 3.25 227.98-1.1L227.98-1.1 227.98-2.4Q226.33-1.3 224.66-0.83 222.98-0.35 220.68-0.35L220.68-0.35Q215.03-0.35 212.16-3.75 209.28-7.15 209.28-13.3L209.28-13.3Q209.28-19.65 212.28-23.18 215.28-26.7 221.18-26.7L221.18-26.7Q223.33-26.7 224.91-26.28 226.48-25.85 228.73-24.85L228.73-24.85 229.08-26.15ZM220.73-4.4Q222.93-4.4 224.58-4.95 226.23-5.5 227.98-6.7L227.98-6.7 227.98-21.8Q226.38-22.35 224.96-22.58 223.53-22.8 221.68-22.8L221.68-22.8Q217.78-22.8 215.91-20.3 214.03-17.8 214.03-13.35L214.03-13.35Q214.03-4.4 220.73-4.4L220.73-4.4ZM279.73-34.8L279.73 0 275.33 0 275.33-31 263.98 0 259.18 0 247.63-30.8 247.63 0 243.23 0 243.23-34.8 250.93-34.8 261.68-6.15 272.18-34.8 279.73-34.8ZM311.63 0L307.23 0 306.53-3.75Q304.58-1.6 302.3-0.5 300.03 0.6 297.18 0.6L297.18 0.6Q293.63 0.6 291.43-1.43 289.23-3.45 289.23-6.8L289.23-6.8Q289.23-11.15 292.73-13.2 296.23-15.25 301.73-15.25L301.73-15.25Q303.73-15.25 306.13-15L306.13-15 306.13-16.8Q306.13-19.5 304.65-21.13 303.18-22.75 300.83-22.75L300.83-22.75Q298.03-22.75 295.75-22 293.48-21.25 291.08-19.65L291.08-19.65 291.08-23.9Q293.43-25.45 295.88-26.08 298.33-26.7 301.48-26.7L301.48-26.7Q305.48-26.7 308-24.15 310.53-21.6 310.53-17.4L310.53-17.4 310.53-5.8 311.63 0ZM298.08-3.1Q300.48-3.1 302.38-4.1 304.28-5.1 306.13-7L306.13-7 306.13-11.9 301.53-11.9Q293.98-11.9 293.98-7.05L293.98-7.05Q293.98-5.25 295.13-4.17 296.28-3.1 298.08-3.1L298.08-3.1ZM331.53-26.7L333.08-26.7 333.08-21.85 332.33-21.85Q329.98-21.85 328.1-21 326.23-20.15 324.98-18.55L324.98-18.55 324.98 0 320.58 0 320.58-20.3 319.48-26.1 323.88-26.1 324.78-21.45Q326.83-24.45 328.25-25.58 329.68-26.7 331.53-26.7L331.53-26.7ZM346.62-35.4L346.62-26.1 353.82-26.1 353.82-22.3 346.62-22.3 346.62-7.35Q346.62-5.5 347.45-4.38 348.27-3.25 349.87-3.25L349.87-3.25Q350.97-3.25 351.85-3.48 352.72-3.7 353.82-4.2L353.82-4.2 353.82-0.3Q352.67 0.25 351.62 0.43 350.57 0.6 349.07 0.6L349.07 0.6Q345.87 0.6 344.05-1.45 342.22-3.5 342.22-6.9L342.22-6.9 342.22-22.3 337.22-22.3 337.22-26.1 342.22-26.1 342.22-33.1 346.62-35.4Z" opacity="1" transform="matrix(1,0,0,1,0,0)" fill="#000000" class="wordmark-text-0" data-fill-palette-color="primary" id="text-0"></path></svg></g></svg></g></svg></g></svg></g><g transform="matrix(1,0,0,1,0,0.14313626090687848)"><svg viewBox="0 0 36.42717563698162 57.25450436275212" height="57.25450436275212" width="36.42717563698162"><g><svg xmlns="http://www.w3.org/2000/svg" xmlns:xlink="http://www.w3.org/1999/xlink" version="1.1" x="0" y="0" viewBox="0 0.6441024164798659 63.175 99.29546416562579" enable-background="new 0 0 63.176 100" xml:space="preserve" id="icon-0" width="36.42717563698162" height="57.25450436275212" class="icon-icon-0" data-fill-palette-color="accent"><g fill="#24a8df" data-fill-palette-color="accent"><circle cx="35.097" cy="8.635" r="8.6" fill="#000000" data-fill-palette-color="accent"></circle><g fill="#24a8df" data-fill-palette-color="accent"><path d="M55.788 83.153L63.175 82.351 59.342 67.632 54.974 68.111C54.083 63.743 51.397 60.557 48.478 60.467L45.848 51.531V54.205C45.848 56.534 45.113 58.74 43.764 60.578 42.215 60.99 40.744 62.238 39.641 64.032L39.697 66.405C40.466 64.433 41.636 62.895 42.939 62.115L42.95 62.182C43.128 62.761 43.485 63.241 43.942 63.575 43.363 64.656 42.961 65.959 42.772 67.397L43.864 67.564C44.02 66.216 44.41 65.012 44.934 64.043A3 3 0 0 0 46.505 64.01 2.9 2.9 0 0 0 47.764 63.263C48.8 64.723 49.368 66.973 49.246 69.491L39.742 68.076 39.82 71.296S39.831 71.719 39.831 72.087L46.004 84.221 54.673 85.514 54.684 70.305 50.35 69.659C50.517 66.684 49.759 63.999 48.4 62.305 48.5 62.071 48.567 61.826 48.589 61.57 51.308 61.659 53.18 64.957 53.859 68.233L51.475 68.489C51.475 68.556 51.486 68.634 51.486 68.701L54.851 69.202 55.798 69.347V70.305z" fill="#000000" data-fill-palette-color="accent"></path><path d="M15.76 64.877C15.651 65.054 15.543 65.232 15.44 65.418L16.423 65.915C17.337 64.243 18.534 62.995 19.793 62.401 18.526 62.494 17.041 63.422 15.76 64.877" fill="#000000" data-fill-palette-color="accent"></path><path d="M25.512 63.644C25.912 65.164 25.926 66.949 25.524 68.833 25.512 69.314 25.474 69.807 25.407 70.309L25.152 70.249 25.132 70.318 28.171 71.854 29.029 72.288 28.725 73.2 24.611 85.573 29.496 86.721 30.767 71.568 26.494 70.564C26.864 67.906 26.475 65.427 25.512 63.644" fill="#000000" data-fill-palette-color="accent"></path><polygon points="4.548,80.86 10.448,82.246 5.076,79.53   " fill="#000000" data-fill-palette-color="accent"></polygon><path d="M24.356 86.658L24.258 86.635 23.927 87.63 23.52 88.855 23.346 88.767 23.093 96.328A3.554 3.554 0 0 0 30.196 96.565L30.479 88.096 29.241 87.805z" fill="#000000" data-fill-palette-color="accent"></path><path d="M30.774 84.769H36.579L34.351 69.727H29.961C29.627 66.117 28.022 63.142 25.872 61.95L27.042 57.961C27.532 59.086 28.256 60.134 29.315 60.825L28.479 62.753C29.694 64.246 30.574 66.285 30.941 68.614H35.309L35.354 68.915 39.655 61.483A7.8 7.8 0 0 0 41.081 60.346 8.68 8.68 0 0 0 43.621 54.207V27.354A8.6 8.6 0 0 0 42.93 23.967L42.919 24.012C41.582 20.859 38.518 18.642 34.941 18.642 30.139 18.642 26.25 22.62 26.25 27.522L26.295 39.99 20.367 60.179C17.793 60.012 14.751 61.995 12.69 65.282L8.78 63.298 0 75.71 22.875 87.275 27.666 72.846 23.755 70.863C24.747 68.334 24.947 65.805 24.401 63.832A2.7 2.7 0 0 0 25.415 62.974C27.331 63.609 28.646 67.709 28.847 69.726H27.811L31.02 70.484 31.956 70.707 31.878 71.665zM22.755 70.365L13.688 65.781C15.495 62.933 18.042 61.182 20.159 61.273A2.76 2.76 0 0 0 20.857 63.131L20.268 63.409A4.4 4.4 0 0 0 19.648 63.79C19.036 64.626 18.544 65.657 18.178 66.803L19.16 67.3C19.634 65.699 20.404 64.408 21.338 63.559 21.608 63.755 21.912 63.916 22.253 64.016 22.619 64.124 22.988 64.154 23.344 64.125 23.821 65.823 23.646 68.074 22.755 70.365" fill="#000000" data-fill-palette-color="accent"></path><polygon points="10.955,84.771 16.323,84.771 11.136,83.552   " fill="#000000" data-fill-palette-color="accent"></polygon><path d="M37.621 72.648L37.59 71.356 36.103 73.932 37.685 84.608 37.71 84.778 37.697 85.113 37.759 85.106 37.874 85.885H36.388L41.573 96.082A3.554 3.554 0 0 0 47.908 92.86z" fill="#000000" data-fill-palette-color="accent"></path></g></g></svg></g></svg></g></svg></g><defs></defs></svg><rect width="395.52" height="49.03341126620475" fill="none" stroke="none" visibility="hidden"></rect></g></svg></g></svg>